HIERARCHY
ROOT Hips
{
	OFFSET 0.000000 8.830580 0.000000
	CHANNELS 6 Xposition Yposition Zposition Zrotation Yrotation Xrotation 
	JOINT Spine
	{
		OFFSET 0.000000 0.010000 0.000000
		CHANNELS 3 Zrotation Yrotation Xrotation
		JOINT Spine1
		{
			OFFSET 0.000000 2.459130 0.000000
			CHANNELS 3 Zrotation Yrotation Xrotation
			JOINT Neck
			{
				OFFSET 0.000000 2.484630 0.000000
				CHANNELS 3 Zrotation Yrotation Xrotation
				JOINT Head_virtual
				{
					OFFSET 0.000000 0.000000 0.000000
					CHANNELS 3 Zrotation Yrotation Xrotation
					JOINT Head
					{
						OFFSET 0.000000 0.927525 0.000000
						CHANNELS 3 Zrotation Yrotation Xrotation
						End Site
						{
							OFFSET 0.000000 0.000000 0.000000
						}
					}
				}
				JOINT LeftUpArm_virtual
				{
					OFFSET 0.000000 0.000000 0.000000
					CHANNELS 3 Zrotation Yrotation Xrotation
					JOINT LeftUpArm
					{
						OFFSET 1.248820 0.000000 0.000000
						CHANNELS 3 Zrotation Yrotation Xrotation
						JOINT LeftForeArm
						{
							OFFSET 2.597580 0.000000 0.000000
							CHANNELS 3 Zrotation Yrotation Xrotation
							JOINT LeftHand
							{
								OFFSET 2.455420 0.000000 0.000000
								CHANNELS 3 Zrotation Yrotation Xrotation
								End Site
								{
									OFFSET 0.000000 0.000000 0.000000
								}
							}
						}
					}
				}
				JOINT RightUpArm_virtual
				{
					OFFSET -0.000000 -0.000000 -0.000000
					CHANNELS 3 Zrotation Yrotation Xrotation
					JOINT RightUpArm
					{
						OFFSET -1.248820 -0.000000 -0.000000
						CHANNELS 3 Zrotation Yrotation Xrotation
						JOINT RightForeArm
						{
							OFFSET -2.597580 -0.000000 -0.000000
							CHANNELS 3 Zrotation Yrotation Xrotation
							JOINT RightHand
							{
								OFFSET -2.455420 -0.000000 -0.000000
								CHANNELS 3 Zrotation Yrotation Xrotation
								End Site
								{
									OFFSET 0.000000 0.000000 0.000000
								}
							}
						}
					}
				}
			}
		}
	}
	JOINT LeftUpLeg
	{
		OFFSET 1.271939 0.000000 0.000000
		CHANNELS 3 Zrotation Yrotation Xrotation
		JOINT LeftLowLeg
		{
			OFFSET 0.000000 -4.342910 0.000000
			CHANNELS 3 Zrotation Yrotation Xrotation
			JOINT LeftFoot
			{
				OFFSET 0.000000 -4.487670 0.000000
				CHANNELS 3 Zrotation Yrotation Xrotation
				JOINT LeftToeBase
				{
					OFFSET 0.000000 0.000000 1.515070
					CHANNELS 3 Zrotation Yrotation Xrotation
					End Site
					{
						OFFSET 0.000000 0.000000 0.000000
					}
				}
			}
		}
	}
	JOINT RightUpLeg
	{
		OFFSET -1.271939 0.000000 0.000000
		CHANNELS 3 Zrotation Yrotation Xrotation
		JOINT RightLowLeg
		{
			OFFSET 0.000000 -4.342910 0.000000
			CHANNELS 3 Zrotation Yrotation Xrotation
			JOINT RightFoot
			{
				OFFSET 0.000000 -4.487670 0.000000
				CHANNELS 3 Zrotation Yrotation Xrotation
				JOINT RightToeBase
				{
					OFFSET 0.000000 0.000000 1.515070
					CHANNELS 3 Zrotation Yrotation Xrotation
					End Site
					{
						OFFSET 0.000000 0.000000 0.000000
					}
				}
			}
		}
	}
}
MOTION
Frames: 5
Frame Time: 0.041667
-19.908276 9.073221 41.541850 -172.346843 8.688048 -140.795531 4.694211 6.959598 32.692134 -4.685917 -6.096923 8.894877 0.000000 0.000000 0.000000 -9.702192 -1.132827 -34.146764 15.688880 3.657912 -67.850307 -6.439710 -14.852100 11.686900 -27.602900 -55.250702 -15.080300 0.000000 -51.138500 0.000000 9.020580 18.401400 -61.786201 13.638400 14.016900 11.039400 17.685200 50.674999 -21.522900 0.000000 55.284199 0.000000 -2.786680 -11.716900 -49.127800 -3.401836 4.654130 -58.794090 0.000000 0.000000 28.026501 -2.989475 -6.888203 8.194832 0.000000 0.000000 -39.758699 0.608007 -4.816323 -43.995619 0.000000 0.000000 17.998699 16.149484 7.221507 9.347364 0.000000 0.000000 -28.866000 
-19.896351 9.079571 41.524090 -172.316150 8.647699 -141.970099 4.555055 6.928922 32.045066 -4.989512 -6.213771 9.107176 0.000000 0.000000 0.000000 -9.500443 -0.798985 -34.718041 15.695919 3.522927 -67.388868 -6.371330 -14.314200 10.845200 -29.935801 -54.022598 -11.536700 0.000000 -51.828098 0.000000 8.975300 18.249399 -62.015301 14.121600 13.779400 11.270300 18.993000 49.857700 -19.375999 0.000000 56.059502 0.000000 -2.582400 -11.749800 -50.350300 -3.076400 4.633671 -57.432928 0.000000 0.000000 27.938900 -3.087204 -6.769948 8.118112 0.000000 0.000000 -39.723301 0.608462 -4.797133 -42.565364 0.000000 0.000000 17.754101 15.970857 7.097548 9.400248 0.000000 0.000000 -28.889700 
-19.880511 9.087677 41.508399 -172.281457 8.742638 -143.164068 4.224245 7.140643 31.470613 -4.970930 -6.310566 9.128551 0.000000 0.000000 0.000000 -9.203800 -0.605416 -35.127812 15.508658 3.324871 -66.831839 -6.537280 -13.951000 11.088700 -30.588100 -53.195900 -9.554890 0.000000 -52.558399 0.000000 9.012330 18.598900 -62.648899 14.298400 13.607100 11.321100 20.729200 48.780102 -17.049500 0.000000 56.869801 0.000000 -2.499400 -11.665800 -51.477501 -2.906917 4.846788 -55.962844 0.000000 0.000000 27.674500 -3.228913 -6.830002 8.068285 0.000000 0.000000 -39.708900 0.622179 -4.722852 -41.206326 0.000000 0.000000 17.611799 15.631180 6.945759 9.484401 0.000000 0.000000 -28.877300 
-19.870200 9.094106 41.488066 -172.305297 8.668920 -144.151666 4.005101 7.157201 30.584709 -5.011779 -6.445442 9.226483 0.000000 0.000000 0.000000 -9.144448 -0.445714 -35.468637 15.549114 3.146092 -66.344369 -6.916620 -13.556900 11.835000 -30.193501 -52.648701 -8.363170 0.000000 -53.390301 0.000000 8.745190 19.520800 -63.479000 14.673900 13.364100 11.666500 21.705500 47.924000 -15.136500 0.000000 57.512501 0.000000 -2.422580 -11.706000 -52.286400 -2.675758 4.778914 -54.718136 0.000000 0.000000 27.450199 -3.321824 -6.764063 8.020903 0.000000 0.000000 -39.627501 0.715405 -4.951658 -40.003718 0.000000 0.000000 17.435499 15.505401 7.028284 9.583332 0.000000 0.000000 -28.931200 
-19.857035 9.103427 41.465853 -172.299849 8.567937 -145.404422 3.814879 7.201778 30.004477 -4.971190 -6.542250 9.278760 0.000000 0.000000 0.000000 -9.181130 -0.309024 -35.823492 15.785969 2.922307 -65.859917 -7.064030 -13.299500 11.976000 -30.803699 -51.632000 -6.344310 0.000000 -54.320202 0.000000 8.475590 19.601200 -64.209602 14.944500 12.939100 11.889500 22.784700 47.226299 -13.075700 0.000000 57.981602 0.000000 -2.248200 -11.866700 -53.061798 -2.292107 4.644387 -53.172502 0.000000 0.000000 27.192900 -3.481659 -6.651657 8.020077 0.000000 0.000000 -39.604401 0.674918 -4.952622 -38.485571 0.000000 0.000000 17.214001 15.399619 6.903401 9.730875 0.000000 0.000000 -28.986300 
